<svg width="194" height="198" viewBox="0 0 194 198" fill="none" xmlns="http://www.w3.org/2000/svg">
<path d="M18.8655 1.32076C44.1654 -11.4972 194 72.5628 194 98.6777C193.984 124.834 43.8893 208.712 18.8655 196.035C-6.15027 183.357 -6.42632 14.1304 18.8655 1.31249L18.8655 1.32076Z" fill="white"/>
<path d="M34.6377 26.7788C38.5876 24.7677 46.6946 26.0064 57 29.3843V101.585C55.5641 101.204 54.0559 101 52.5 101C42.8351 101 35 108.836 35 118.5C35.0003 128.165 42.8352 136 52.5 136C62.1649 136 69.9998 128.165 70 118.5C70 118.333 69.9969 118.166 69.9922 118H70V34.269C108.534 50.3141 162.531 84.7645 162.531 98.228C162.524 108.302 132.332 130.039 101 147.082V100.415C102.436 100.796 103.944 101 105.5 101C115.165 101 123 93.1653 123 83.5005C123 73.8355 115.165 66.0005 105.5 66.0005C96.0023 66.0005 88.2725 73.5667 88.0079 83.0005H88V153.846C64.1499 165.681 41.994 173.422 34.6377 169.676C16.3705 160.371 16.1689 36.1815 34.6377 26.773V26.7788Z" fill="url(#paint0_linear_8_15)"/>
<defs>
<linearGradient id="paint0_linear_8_15" x1="16.9859" y1="53.5218" x2="136.216" y2="118.414" gradientUnits="userSpaceOnUse">
<stop offset="0.0172405" stop-color="#AA5DC3"/>
<stop offset="1" stop-color="#0E9EDA"/>
</linearGradient>
</defs>
</svg>
